<svg width="300" height="227" viewBox="0 0 300 227" fill="none" xmlns="http://www.w3.org/2000/svg">
<g clip-path="url(#clip0_5_26)">
<path d="M75.3138 151.027H74.2491V163.804H75.3138V151.027Z" fill="#272727"/>
<path d="M79.6917 151.382H69.5163C68.6033 151.382 67.8605 150.639 67.8605 149.726V145.939C67.8605 145.026 68.6033 144.283 69.5163 144.283H79.6917C80.6047 144.283 81.3475 145.026 81.3475 145.939V149.726C81.3475 150.639 80.6047 151.382 79.6917 151.382ZM73.303 144.993C70.6893 144.993 68.5704 147.112 68.5704 149.726C68.5704 150.248 68.9939 150.672 69.5164 150.672H79.6917C80.2141 150.672 80.6376 150.248 80.6376 149.726V145.939C80.6376 145.417 80.2141 144.993 79.6916 144.993H73.303Z" fill="#272727"/>
<path d="M135.93 181.849H134.866V194.626H135.93V181.849Z" fill="#272727"/>
<path d="M140.308 182.204H130.133C129.22 182.204 128.477 181.461 128.477 180.548V176.761C128.477 175.848 129.22 175.105 130.133 175.105H140.308C141.221 175.105 141.964 175.848 141.964 176.761V180.548C141.964 181.461 141.221 182.204 140.308 182.204ZM133.919 175.815C131.306 175.815 129.187 177.934 129.187 180.548C129.187 181.07 129.61 181.494 130.133 181.494H140.308C140.831 181.494 141.254 181.071 141.254 180.548V176.761C141.254 176.239 140.831 175.815 140.308 175.815H133.919Z" fill="#272727"/>
<path d="M245.8 220.687L241.702 220.687L239.752 204.878L245.801 204.879L245.8 220.687Z" fill="#FFB6B6"/>
<path d="M245.944 224.963L233.341 224.962V224.803C233.341 222.094 235.538 219.898 238.247 219.897L240.549 218.151L244.844 219.898L245.945 219.898L245.944 224.963Z" fill="#2F2E41"/>
<path d="M225.586 220.687L221.488 220.687L219.538 204.878L225.587 204.879L225.586 220.687Z" fill="#FFB6B6"/>
<path d="M225.73 224.963L213.127 224.962V224.803C213.127 222.094 215.323 219.898 218.032 219.897L220.335 218.151L224.63 219.898L225.73 219.898L225.73 224.963Z" fill="#2F2E41"/>
<path d="M227.752 131.237L255.546 129.973L258.326 146.145L256.557 151.703L255.041 158.02L250.493 180.256L246.703 213.104H238.659L238.491 181.899L240.378 179.321V177.602L239.089 154.862L230.658 176.845L231.416 179.877L229.142 185.436L226.411 213.104H218.89L217.266 175.329L223.33 152.082V147.787L224.341 145.766L227.752 131.237Z" fill="#2F2E41"/>
<path d="M246.071 79.311H235.939L234.7 84.87L224.846 89.4182L228.384 115.191L226.362 123.53V126.815L225.351 129.847L224.846 139.521L259.463 141.975L257.189 136.922L257.947 133.89L257.189 132.121L255.167 117.213L256.683 88.4074L248.85 85.628L246.071 79.311Z" fill="#3F3D56"/>
<path d="M193.75 127.188L201.007 121.153L205.033 124.817L197.134 130.926C197.077 131.225 196.976 131.522 196.826 131.805C196.013 133.349 194.103 133.942 192.559 133.129C191.015 132.316 190.422 130.405 191.235 128.861C191.754 127.877 192.719 127.281 193.75 127.188Z" fill="#FFB6B6"/>
<path d="M231.267 91.5041L227.411 89.952C226.215 89.2213 224.677 89.3785 223.659 90.342C221.721 92.1777 218.864 95.2355 218.609 97.5222C218.609 97.5222 209.403 107.051 209.284 108.852C209.165 110.652 196.539 124.25 196.539 124.25L202.42 128.622L226.21 105.882L228.353 94.3617C229.36 92.8934 232.786 92.4326 231.267 91.5041Z" fill="#3F3D56"/>
<path d="M241.373 78.4264C246.157 78.4264 250.035 74.548 250.035 69.7638C250.035 64.9795 246.157 61.1011 241.373 61.1011C236.588 61.1011 232.71 64.9795 232.71 69.7638C232.71 74.548 236.588 78.4264 241.373 78.4264Z" fill="#FFB6B6"/>
<path d="M250.634 73.8585C250.433 73.6119 250.351 73.3037 250.151 73.0571C250.161 73.4629 250.156 73.8739 250.228 74.2694C250.238 74.3311 250.248 74.4081 250.264 74.5057C250.269 74.5263 250.274 74.5366 250.279 74.5571C250.279 74.5674 250.284 74.5777 250.284 74.5879C249.673 75.7438 248.974 76.4578 248.471 76.6581C247.228 77.1564 245.548 77.5828 245.44 77.665C245.558 77.48 249.966 70.5862 248.471 70.0879C246.955 69.5845 247.084 70.5246 247.084 70.5246C246.394 67.695 245.007 66.5308 242.913 67.0571C240.18 66.9595 237.503 66.1273 236.116 68.9989C235.957 68.3362 235.716 67.689 235.433 67.0982C235.377 67.7301 235.377 68.4338 235.171 69.0503C233.229 70.7438 232.066 70.455 231.329 69.3585C231.329 69.1376 231.334 68.9116 231.349 68.6907C231.365 68.5417 231.38 68.403 231.406 68.2592C231.488 67.8431 231.812 67.6016 231.971 67.2369C231.616 67.4321 231.247 67.6171 230.928 67.8636C230.882 67.8996 230.815 67.9458 230.738 68.0023C230.538 66.6924 229.849 62.3003 232.048 63.7695C234.247 65.2386 233.06 62.254 233.06 62.254H235.695C235.695 62.254 236.147 61.6581 236.949 61.0263C237.092 61.0674 237.226 61.1085 237.36 61.1599C237.755 61.314 236.481 59.8808 236.815 60.1016C236.687 59.7215 238.022 61.1188 237.837 60.7592C237.806 60.6975 237.899 59.6958 237.842 59.5879C239.312 58.6993 246.36 58.6949 248.63 60.6153C251.486 63.0312 247.871 61.7986 251.502 66.5486C252.95 68.4428 252.851 70.2217 250.634 73.8585Z" fill="#2F2E41"/>
<path d="M178.797 226.025H33.3638C29.6972 226.025 26.7141 223.042 26.7141 219.375V60.0721C26.7141 56.4055 29.6972 53.4224 33.3638 53.4224H178.797C182.464 53.4224 185.447 56.4055 185.447 60.0721V219.375C185.447 223.042 182.464 226.025 178.797 226.025ZM70.8517 54.4498C47.0426 54.4498 27.7415 73.7509 27.7415 97.56V219.375C27.7415 222.48 30.2588 224.998 33.3641 224.998H178.797C181.902 224.998 184.42 222.481 184.42 219.375V60.0721C184.42 56.967 181.902 54.4498 178.797 54.4498L70.8517 54.4498Z" fill="#272727"/>
<path d="M264.585 226.025H200.83C197.163 226.025 194.18 223.042 194.18 219.375V60.0721C194.18 56.4055 197.163 53.4224 200.83 53.4224H264.585C268.252 53.4224 271.235 56.4055 271.235 60.0721V219.375C271.235 223.042 268.252 226.025 264.585 226.025ZM200.83 54.4498C197.729 54.4498 195.207 56.9718 195.207 60.0721V219.375C195.207 222.475 197.729 224.998 200.83 224.998H264.585C267.685 224.998 270.207 222.475 270.207 219.375V60.0721C270.207 56.9718 267.685 54.4498 264.585 54.4498L200.83 54.4498Z" fill="#272727"/>
<path d="M293.276 0H6.72944C3.02049 0 0 3.01534 0 6.7243V102.688C0 106.243 2.77906 109.171 6.27738 109.397C6.42637 109.413 6.57537 109.418 6.72944 109.418H26.8253V108.39H6.72944C6.57537 108.39 6.42638 108.385 6.27739 108.37C3.34419 108.139 1.0274 105.678 1.0274 102.688V6.7243C1.0274 3.58046 3.58561 1.0274 6.72944 1.0274H293.276C296.42 1.0274 298.973 3.58046 298.973 6.7243V102.688C298.973 105.832 296.42 108.39 293.276 108.39H270.318V109.418H293.276C296.985 109.418 300 106.397 300 102.688V6.7243C300 3.01535 296.985 0 293.276 0Z" fill="#272727"/>
<path d="M99.5536 162.01H88.4628C88.4628 161.882 88.4731 161.753 88.4937 161.615C88.7814 159.436 91.3293 156.226 92.8601 155.558C93.1529 155.435 93.4098 155.399 93.605 155.486C93.8567 155.594 94.0108 155.907 94.0108 156.467C94.0108 157.788 94.843 158.46 95.8653 158.959C95.6136 159.349 95.2899 159.662 94.8635 159.765C95.7112 159.945 97.0159 160.176 98.0331 159.924C98.7831 160.315 99.3738 160.803 99.5176 161.615C99.5434 161.738 99.5536 161.871 99.5536 162.01Z" fill="#017A77"/>
<path d="M93.1558 155.615C93.6268 155.615 94.0086 155.233 94.0086 154.762C94.0086 154.291 93.6268 153.909 93.1558 153.909C92.6848 153.909 92.303 154.291 92.303 154.762C92.303 155.233 92.6848 155.615 93.1558 155.615Z" fill="#3F3D56"/>
<path d="M94.0086 168.293C97.6968 168.293 100.687 165.303 100.687 161.615H87.3305C87.3305 165.303 90.3204 168.293 94.0086 168.293Z" fill="#272727"/>
<path d="M127.293 182.558H116.203C116.203 182.43 116.213 182.301 116.233 182.162C116.362 181.186 116.947 180.005 117.687 178.936C118.042 178.983 118.36 179.106 118.602 179.352C118.489 179.039 118.355 178.664 118.18 178.274C118.987 177.246 119.901 176.409 120.6 176.106C120.893 175.983 121.149 175.947 121.345 176.034C121.596 176.142 121.751 176.455 121.751 177.015C121.751 180.272 126.795 179.573 127.257 182.162C127.283 182.286 127.293 182.419 127.293 182.558Z" fill="#017A77"/>
<path d="M120.896 176.163C121.367 176.163 121.748 175.781 121.748 175.31C121.748 174.839 121.367 174.457 120.896 174.457C120.425 174.457 120.043 174.839 120.043 175.31C120.043 175.781 120.425 176.163 120.896 176.163Z" fill="#3F3D56"/>
<path d="M121.748 188.841C125.437 188.841 128.426 185.851 128.426 182.163H115.07C115.07 185.851 118.06 188.841 121.748 188.841Z" fill="#272727"/>
<path d="M120.588 155.069C117.825 155.069 115.584 157.309 115.584 160.073H125.593C125.593 157.309 123.352 155.069 120.588 155.069Z" fill="#017A77"/>
<path d="M125.593 158.532H115.586C115.586 155.769 117.826 153.529 120.59 153.529C121.417 153.529 122.197 153.729 122.881 154.084C122.853 154.147 122.826 154.21 122.797 154.274C122.582 154.75 122.924 155.296 123.446 155.278C123.616 155.272 123.785 155.264 123.95 155.252L124.588 155.522C125.217 156.363 125.593 157.404 125.593 158.532Z" fill="#017A77"/>
<path d="M120.721 165.724C124.409 165.724 127.399 162.734 127.399 159.046H114.043C114.043 162.734 117.033 165.724 120.721 165.724Z" fill="#272727"/>
<path d="M226.924 109.864C224.16 109.864 221.92 112.104 221.92 114.868H231.929C231.929 112.104 229.688 109.864 226.924 109.864Z" fill="#017A77"/>
<path d="M231.929 113.327H221.922C221.922 110.563 224.162 108.323 226.925 108.323C227.752 108.323 228.533 108.524 229.216 108.878C229.189 108.941 229.161 109.005 229.133 109.069C228.918 109.544 229.26 110.091 229.781 110.073C229.952 110.067 230.12 110.058 230.285 110.046L230.924 110.317C231.553 111.157 231.929 112.199 231.929 113.327Z" fill="#017A77"/>
<path d="M227.057 120.519C230.745 120.519 233.735 117.529 233.735 113.841H220.378C220.378 117.529 223.368 120.519 227.057 120.519Z" fill="#272727"/>
<path d="M72.0266 98.1341C75.5626 98.1341 78.429 95.328 78.429 91.8666C78.429 88.4052 75.5626 85.5991 72.0266 85.5991C68.4907 85.5991 65.6243 88.4052 65.6243 91.8666C65.6243 95.328 68.4907 98.1341 72.0266 98.1341Z" fill="#017A77"/>
<path d="M123.352 89.7224H88.8903C87.708 89.7224 86.7461 88.7605 86.7461 87.5782C86.7461 86.396 87.708 85.4341 88.8903 85.4341H123.352C124.534 85.4341 125.496 86.396 125.496 87.5782C125.496 88.7605 124.534 89.7224 123.352 89.7224Z" fill="#272727"/>
<path d="M150.246 96.9794H88.8903C87.708 96.9794 86.7461 96.0175 86.7461 94.8353C86.7461 93.6531 87.708 92.6912 88.8903 92.6912H150.246C151.428 92.6912 152.39 93.6531 152.39 94.8353C152.39 96.0175 151.428 96.9794 150.246 96.9794Z" fill="#272727"/>
<path d="M123.352 112.839H88.8903C87.7081 112.839 86.7462 111.877 86.7462 110.695C86.7462 109.512 87.7081 108.551 88.8903 108.551H123.352C124.534 108.551 125.496 109.512 125.496 110.695C125.496 111.877 124.534 112.839 123.352 112.839Z" fill="#272727"/>
<path d="M150.246 120.096H88.8903C87.7081 120.096 86.7462 119.134 86.7462 117.952C86.7462 116.77 87.7081 115.808 88.8903 115.808H150.246C151.428 115.808 152.39 116.77 152.39 117.952C152.39 119.134 151.428 120.096 150.246 120.096Z" fill="#272727"/>
<path d="M69.9719 32.8943C73.5078 32.8943 76.3742 30.0883 76.3742 26.6269C76.3742 23.1654 73.5078 20.3594 69.9719 20.3594C66.4359 20.3594 63.5695 23.1654 63.5695 26.6269C63.5695 30.0883 66.4359 32.8943 69.9719 32.8943Z" fill="#017A77"/>
<path d="M121.297 24.4826H86.8355C85.6533 24.4826 84.6914 23.5207 84.6914 22.3385C84.6914 21.1562 85.6533 20.1943 86.8355 20.1943H121.297C122.479 20.1943 123.441 21.1562 123.441 22.3385C123.441 23.5207 122.479 24.4826 121.297 24.4826Z" fill="#272727"/>
<path d="M148.191 31.7397H86.8355C85.6533 31.7397 84.6914 30.7778 84.6914 29.5956C84.6914 28.4133 85.6533 27.4514 86.8355 27.4514H148.191C149.373 27.4514 150.335 28.4133 150.335 29.5956C150.335 30.7778 149.373 31.7397 148.191 31.7397Z" fill="#272727"/>
<path d="M147.145 225.981L146.165 225.672L152.808 204.606C153.37 202.824 148.273 226.82 147.168 225.313C146.063 223.806 149.144 197.06 147.275 197.06H65.0622C63.3046 197.06 64.5421 223.434 63.4355 224.799C62.3287 226.165 59.0224 202.343 59.3861 204.062L63.4243 223.152L62.4192 223.365L58.381 204.275C57.9528 202.251 58.4544 200.168 59.757 198.561C61.0597 196.954 62.9934 196.032 65.0622 196.032H147.275C149.475 196.032 151.482 197.05 152.783 198.823C154.083 200.597 154.45 202.818 153.788 204.915L147.145 225.981Z" fill="#272727"/>
<path d="M120.191 190.163L121.182 190.477L138.088 195.809C140.184 196.466 142.403 196.102 144.181 194.802C145.953 193.502 146.97 191.494 146.97 189.295L146.97 169.24C146.97 167.17 146.051 165.239 144.443 163.934C142.835 162.629 140.749 162.131 138.725 162.557L120.659 166.379L119.636 166.595L119.647 166.641L119.852 167.602L120.016 167.566L121.023 167.355L138.941 163.564C140.662 163.199 142.429 163.626 143.796 164.73C145.162 165.84 145.943 167.483 145.943 169.24L145.943 189.295C145.943 191.165 145.08 192.87 143.569 193.975C142.064 195.079 140.179 195.388 138.397 194.828L121.28 189.434L120.258 189.11L120.191 190.163Z" fill="#272727"/>
<path d="M94.6397 168.374L93.6482 168.061L76.7424 162.728C74.6465 162.071 72.4273 162.436 70.6499 163.735C68.8777 165.035 67.8605 167.043 67.8605 169.242L67.8605 189.297C67.8605 191.367 68.78 193.299 70.3879 194.603C71.9958 195.908 74.0814 196.406 76.1054 195.98L94.1721 192.158L95.1944 191.942L95.1841 191.896L94.9787 190.936L94.8143 190.972L93.8074 191.182L75.8896 194.973C74.1687 195.338 72.4016 194.912 71.0352 193.807C69.6687 192.698 68.8879 191.054 68.8879 189.297L68.8879 169.242C68.8879 167.372 69.751 165.667 71.2612 164.562C72.7664 163.458 74.6516 163.15 76.4342 163.71L93.5506 169.103L94.5729 169.427L94.6397 168.374Z" fill="#272727"/>
<path d="M228.417 116.107L237.646 114.126L239.513 119.241L229.681 120.987C229.492 121.226 229.265 121.442 229.001 121.624C227.564 122.614 225.597 122.253 224.606 120.817C223.616 119.38 223.977 117.413 225.413 116.422C226.329 115.79 227.461 115.711 228.417 116.107Z" fill="#FFB6B6"/>
<path d="M256.267 88.7561C258.464 88.2492 260.693 89.4855 261.41 91.6224C262.535 94.973 263.719 99.851 262.495 103.063L261.484 111.401L260.221 115.949V116.601L233.184 120.498L231.921 113.928L249.356 111.148L249.861 108.116L250.333 107.645L250.98 104.2L252.923 92.3236C253.211 90.5661 254.532 89.1566 256.267 88.7561Z" fill="#3F3D56"/>
<path d="M93.8761 179.213C91.1122 179.213 88.8716 181.453 88.8716 184.217H98.8807C98.8807 181.453 96.6401 179.213 93.8761 179.213Z" fill="#017A77"/>
<path d="M98.8807 182.676H88.8738C88.8738 179.913 91.1135 177.673 93.8772 177.673C94.7043 177.673 95.4851 177.873 96.1683 178.228C96.1412 178.291 96.1135 178.354 96.0848 178.418C95.8697 178.894 96.2118 179.44 96.7335 179.422C96.9039 179.416 97.0724 179.408 97.2375 179.396L97.8759 179.666C98.5051 180.507 98.8807 181.548 98.8807 182.676Z" fill="#017A77"/>
<path d="M94.0086 189.868C97.6968 189.868 100.687 186.878 100.687 183.19H87.3305C87.3305 186.878 90.3204 189.868 94.0086 189.868Z" fill="#272727"/>
<path d="M91.0255 182.955C91.4965 182.955 91.8784 182.573 91.8784 182.102C91.8784 181.631 91.4965 181.249 91.0255 181.249C90.5545 181.249 90.1727 181.631 90.1727 182.102C90.1727 182.573 90.5545 182.955 91.0255 182.955Z" fill="#3F3D56"/>
<path d="M124.93 158.811C125.401 158.811 125.782 158.429 125.782 157.958C125.782 157.487 125.401 157.105 124.93 157.105C124.459 157.105 124.077 157.487 124.077 157.958C124.077 158.429 124.459 158.811 124.93 158.811Z" fill="#3F3D56"/>
<path d="M128.991 187.434H113.58V190.003H128.991V187.434Z" fill="#272727"/>
<path d="M101.765 188.975H86.3537V191.544H101.765V188.975Z" fill="#272727"/>
<path d="M101.765 167.4H86.3537V169.968H101.765V167.4Z" fill="#272727"/>
<path d="M128.991 165.345H113.58V167.914H128.991V165.345Z" fill="#272727"/>
<path d="M71.8467 119.895C74.8315 119.895 77.2512 117.476 77.2512 114.491C77.2512 111.506 74.8315 109.086 71.8467 109.086C68.862 109.086 66.4423 111.506 66.4423 114.491C66.4423 117.476 68.862 119.895 71.8467 119.895Z" fill="white"/>
<path d="M71.8467 120.265C68.6628 120.265 66.0726 117.675 66.0726 114.491C66.0726 111.307 68.6628 108.717 71.8467 108.717C75.0306 108.717 77.6208 111.307 77.6208 114.491C77.6208 117.675 75.0306 120.265 71.8467 120.265ZM71.8467 109.305C68.9874 109.305 66.6612 111.632 66.6612 114.491C66.6612 117.35 68.9874 119.676 71.8467 119.676C74.706 119.676 77.0323 117.35 77.0323 114.491C77.0323 111.632 74.706 109.305 71.8467 109.305Z" fill="#3F3D56"/>
<path d="M71.1095 117.304C70.9206 117.304 70.7423 117.215 70.6286 117.063L69.1542 115.097C68.955 114.832 69.0088 114.455 69.2744 114.256C69.5401 114.056 69.9168 114.11 70.1161 114.376L71.0807 115.662L73.5581 111.946C73.7423 111.67 74.1157 111.595 74.3918 111.779C74.6681 111.963 74.7428 112.337 74.5586 112.613L71.6097 117.036C71.5015 117.198 71.3212 117.298 71.1262 117.304L71.1095 117.304Z" fill="#017A77"/>
<path d="M121.55 147.863C122.915 144.783 123.244 141.303 122.511 138.017C121.796 134.816 120.011 131.906 117.54 129.758C116.161 128.559 114.576 127.599 112.866 126.95C112.457 126.795 112.135 127.403 112.548 127.56C115.458 128.663 117.986 130.672 119.722 133.255C121.502 135.902 122.344 139.075 122.191 142.256C122.103 144.076 121.679 145.88 120.941 147.545C120.762 147.948 121.371 148.268 121.55 147.863Z" fill="#272727"/>
<path d="M114.867 124.903L108.973 124.632C108.758 124.622 108.579 124.881 108.657 125.079L111.042 131.124C111.204 131.534 111.861 131.331 111.698 130.918L109.313 124.873L108.997 125.319L114.891 125.59C115.334 125.61 115.306 124.923 114.867 124.903Z" fill="#272727"/>
<path d="M211.359 40.3302C210.722 37.0225 209.007 33.977 206.53 31.6968C204.117 29.4756 200.99 28.1039 197.735 27.7498C195.918 27.5521 194.069 27.668 192.295 28.1109C191.87 28.2169 191.952 28.9 192.382 28.7928C195.4 28.039 198.623 28.246 201.522 29.3764C204.494 30.535 206.996 32.6604 208.686 35.3605C209.651 36.9047 210.333 38.6284 210.677 40.4169C210.76 40.8498 211.443 40.7657 211.359 40.3302Z" fill="#272727"/>
<path d="M192.769 25.2881L187.774 28.4287C187.593 28.5429 187.593 28.858 187.77 28.9756L193.178 32.5796C193.544 32.8235 193.968 32.2819 193.599 32.0361L188.191 28.4321L188.187 28.9791L193.182 25.8384C193.557 25.6026 193.142 25.0541 192.769 25.2881Z" fill="#272727"/>
</g>
<defs>
<clipPath id="clip0_5_26">
<rect width="300" height="226.025" fill="white"/>
</clipPath>
</defs>
</svg>
