<svg width="1440" height="518" viewBox="0 0 1440 518" fill="none" xmlns="http://www.w3.org/2000/svg">
<rect y="458" width="1440" height="60" fill="#016E6B"/>
<g opacity="0.5">
<path d="M0 420.2L48 401.3C96 382.4 192 344.6 288 313.061C384 281.994 480 256.006 576 275.261C672 293.806 768 357.594 864 376.139C960 395.394 1056 369.406 1152 376.139C1248 382.4 1344 420.2 1392 439.1L1440 458H1392C1344 458 1248 458 1152 458C1056 458 960 458 864 458C768 458 672 458 576 458C480 458 384 458 288 458C192 458 96 458 48 458H0V420.2Z" fill="#016E6B"/>
</g>
<path d="M0 426L48 410C96 394 192 362 288 335.3C384 309 480 287 576 303.3C672 319 768 373 864 388.7C960 405 1056 383 1152 388.7C1248 394 1344 426 1392 442L1440 458H1392C1344 458 1248 458 1152 458C1056 458 960 458 864 458C768 458 672 458 576 458C480 458 384 458 288 458C192 458 96 458 48 458H0V426Z" fill="#016E6B"/>
<g opacity="0.25">
<path d="M0 412.2L48 389.3C96 366.4 192 320.6 288 282.385C384 244.744 480 213.256 576 236.585C672 259.056 768 336.344 864 358.814C960 382.144 1056 350.656 1152 358.814C1248 366.4 1344 412.2 1392 435.1L1440 458H1392C1344 458 1248 458 1152 458C1056 458 960 458 864 458C768 458 672 458 576 458C480 458 384 458 288 458C192 458 96 458 48 458H0V412.2Z" fill="#016E6B"/>
</g>
</svg>
